# xmcd CD database file
#
# Track frame offsets:
#	225
#	9173
#	19751
#	33996
#	47402
#	78135
#	85725
#	100305
#	111201
#	125007
#	145105
#	154122
#	162847
#	168219
#	185530
#	193367
#	202807
#
# Disc length: 4183 seconds
#
# Revision: 0
# Processed by: cddbd v1.4PL0 Copyright (c) Steve Scherf et al.
# Submitted via: CDex 1.40Beta5
#
DISCID=cd105411
DTITLE=Johnny Cash - Tennessee Top cat
DYEAR=1995
DGENRE=Country
TTITLE0=Big River
TTITLE1=There you go
TTITLE2=I got a woman
TTITLE3=I walk the line
TTITLE4=Impersonations
TTITLE5=Hey Porter
TTITLE6=Goodbye little darling goodbye
TTITLE7=Big River/Get rhythm
TTITLE8=Bandana
TTITLE9=Ballad of the harp weaver
TTITLE10=Luther played the boogie
TTITLE11=Pickin' time
TTITLE12=Cry cry cry
TTITLE13=Ballad of Ira Hayes
TTITLE14=I got stripes
TTITLE15=Five feet high and rising
TTITLE16=Night Rider
EXTD=YEAR: 1995 ID3G:   2
EXTT0=
EXTT1=
EXTT2=
EXTT3=
EXTT4=
EXTT5=
EXTT6=
EXTT7=
EXTT8=
EXTT9=
EXTT10=
EXTT11=
EXTT12=
EXTT13=
EXTT14=
EXTT15=
EXTT16=
PLAYORDER=
